<svg xmlns="http://www.w3.org/2000/svg" viewBox="0 0 96 72" width="96" height="72">
  <!-- hut: walnut log walls, sand thatch hip roof (walnut-on-walnut would merge with the walls) -->
  <polygon points="28,32 44,40 44,33 28,25" fill="#7A4E2D"/>
  <polygon points="44,40 54,35 54,28 44,33" fill="#5A3820"/>
  <!-- door + wall seam -->
  <polygon points="34,35 38,37 38,31 34,29" fill="#5A3820"/>
  <polygon points="44,35.5 54,30.5 54,29.5 44,34.5" fill="#7A4E2D"/>
  <polygon points="38,18 58,28 44,20 38,17" fill="#E3C887"/>
  <polygon points="24,25 38,18 38,17" fill="#F2DDA4"/>
  <polygon points="24,25 44,35 44,20 38,17" fill="#F2DDA4"/>
  <polygon points="44,35 58,28 44,20" fill="#C4A86A"/>
  <!-- log pile: logs lie along the grid-row axis, cut sand ends face down-right; stacked 3-2-1, back to front -->
  <polygon points="68,38.5 58,43.5 56,46 66,41" fill="#9A6A42"/>
  <polygon points="66,41 56,46 58,48.5 68,43.5" fill="#7A4E2D"/>
  <polygon points="57,43.5 59,44 60,46 59,48.5 57,48 56,46" fill="#E3C887"/>
  <polygon points="57,43.5 59,44 60,46 56,46" fill="#F2DDA4"/>
  <polygon points="72.5,41 62.5,46 60.5,48 70.5,43" fill="#9A6A42"/>
  <polygon points="70.5,43 60.5,48 62.5,51 72.5,46" fill="#7A4E2D"/>
  <polygon points="61,46 64,46.5 64.5,48 64,51 61,50 60.5,48" fill="#E3C887"/>
  <polygon points="61,46 64,46.5 64.5,48 60.5,48" fill="#F2DDA4"/>
  <polygon points="77,43 67,48 65,50.5 75,45.5" fill="#9A6A42"/>
  <polygon points="75,45.5 65,50.5 67,53 77,48" fill="#7A4E2D"/>
  <polygon points="66,48 68,48.5 69,50.5 68,53 66,52.5 65,50.5" fill="#E3C887"/>
  <polygon points="66,48 68,48.5 69,50.5 65,50.5" fill="#F2DDA4"/>
  <polygon points="70,35.5 60,40.5 58.5,43 68.5,38" fill="#9A6A42"/>
  <polygon points="68.5,38 58.5,43 60,45.5 70,40.5" fill="#7A4E2D"/>
  <polygon points="59,40.5 61.5,41 62,43 61.5,45.5 59,45 58.5,43" fill="#E3C887"/>
  <polygon points="59,40.5 61.5,41 62,43 58.5,43" fill="#F2DDA4"/>
  <polygon points="75,37.5 65,42.5 63,45 73,40" fill="#9A6A42"/>
  <polygon points="73,40 63,45 65,47.5 75,42.5" fill="#7A4E2D"/>
  <polygon points="63.5,42.5 66,43 66.5,45 66,47.5 63.5,47 63,45" fill="#E3C887"/>
  <polygon points="63.5,42.5 66,43 66.5,45 63,45" fill="#F2DDA4"/>
  <polygon points="72.5,32 62.5,37 60.5,40 70.5,35" fill="#9A6A42"/>
  <polygon points="70.5,35 60.5,40 62.5,42 72.5,37" fill="#7A4E2D"/>
  <polygon points="61,37 64,38 64.5,40 64,42 61,41.5 60.5,40" fill="#E3C887"/>
  <polygon points="61,37 64,38 64.5,40 60.5,40" fill="#F2DDA4"/>
  <!-- stump: hex prism, sand cut top; axe head wedged in, handle leaning back-right -->
  <polygon points="27,46 29,48 29,52 27,50" fill="#7A4E2D"/>
  <polygon points="29,48 33,48 33,52 29,52" fill="#7A4E2D"/>
  <polygon points="33,48 35,46 35,50 33,52" fill="#5A3820"/>
  <polygon points="27,46 29,44 33,44 35,46 33,48 29,48" fill="#F2DDA4"/>
  <polygon points="31.5,45.5 32.5,46 39,41 38.5,40" fill="#9A6A42"/>
  <polygon points="28.5,45 32.5,43 33,46 29.5,46.5" fill="#C9C6BF"/>
  <polygon points="29.5,46.5 33,46 33,47 30,47.5" fill="#7E7A72"/>
  <!-- wood chips -->
  <polygon points="35.5,55.5 37,55 38.5,55.5 37,56" fill="#E3C887"/>
  <polygon points="39.5,53 41,52.5 42.5,53 41,53.5" fill="#E3C887"/>
  <polygon points="31.5,55.5 33,55 34.5,55.5 33,56" fill="#E3C887"/>
</svg>
