<svg xmlns="http://www.w3.org/2000/svg" viewBox="0 0 96 120" width="96" height="120">
  <!-- earth slab -->
  <polygon points="0,88 48,112 48,120 0,96" fill="#8A5A33"/>
  <polygon points="48,112 96,88 96,96 48,120" fill="#5E3B20"/>
  <!-- grass: mid underlay, light up-left, dark right -->
  <polygon points="48,64 96,88 48,112 0,88" fill="#6BAA3E"/>
  <polygon points="0,88 48,64 64,72 62,86 26,91" fill="#8BC34A"/>
  <polygon points="64,72 96,88 84,94 62,86" fill="#4E8A34"/>
  <!-- banner pole with antler crown -->
  <polygon points="84,47.5 85,47 85,83.5 84,83" fill="#7A4E2D"/>
  <polygon points="85,47 86,47.5 86,83 85,83.5" fill="#5A3820"/>
  <polygon points="84,47.5 81,42.5 83,43.5 85,47" fill="#F3EAD6"/>
  <polygon points="85,47 88,41.5 87.5,44 86,47.5" fill="#BFAE8C"/>
  <polygon points="79,50 92,56.5 92,58 79,51.5" fill="#7A4E2D"/>
  <g id="owner">
    <polygon points="80.5,52 90.5,57 90.5,72 85.5,73.5 80.5,67" fill="#BDBDBD" data-tone="mid"/>
    <polygon points="80.5,52 90.5,57 90.5,59 80.5,54" fill="#BDBDBD" data-tone="dark"/>
  </g>
  <!-- conifer -->
  <polygon points="42.5,70 45.5,70 45.5,74.5 42.5,74.5" fill="#5A3820"/>
  <polygon points="36,71 44,45 52,71" fill="#5A9E44"/>
  <polygon points="36,71 44,58 44,72.5" fill="#5A9E44"/>
  <polygon points="44,58 52,71 44,72.5" fill="#3F7A32"/>
  <polygon points="36,71 44,58 41.5,67" fill="#7CC25A"/>
  <polygon points="37.5,63 44,51 44,64.5" fill="#5A9E44"/>
  <polygon points="44,51 50.5,63 44,64.5" fill="#3F7A32"/>
  <polygon points="37.5,63 44,51 42,59.5" fill="#7CC25A"/>
  <polygon points="39.5,56 44,45 44,57.5" fill="#5A9E44"/>
  <polygon points="44,45 48.5,56 44,57.5" fill="#3F7A32"/>
  <polygon points="39.5,56 44,45 42.5,52.5" fill="#7CC25A"/>
  <!-- longhouse B (back right): log walls -->
  <polygon points="51,80.5 83,78.5 83,84.5 65,93.5 51,86.5" fill="#7A4E2D"/>
  <polygon points="51,86.5 65,93.5 65,87.5 51,80.5" fill="#7A4E2D"/>
  <polygon points="65,93.5 83,84.5 83,78.5 65,87.5" fill="#5A3820"/>
  <polygon points="51,84 65,91 65,90.5 51,83.5" fill="#5A3820"/>
  <polygon points="51,81.5 65,88.5 65,88 51,81" fill="#5A3820"/>
  <polygon points="71,90.5 76,88 76,83 71,85.5" fill="#34323C"/>
  <!-- longhouse B (back right): steep fur roof, ridge along v -->
  <polygon points="47,80.5 62,67 72,62 87,78.5 65,89.5" fill="#4F4C58"/>
  <polygon points="65,89.5 87,78.5 72,62 62,67" fill="#34323C"/>
  <polygon points="47,80.5 65,89.5 62,67" fill="#6E6B78"/>
  <polygon points="64,81.5 82,72.5 80.5,71.5 63.5,80" fill="#4F4C58"/>
  <polygon points="72,63 68,57 71,61.5" fill="#F3EAD6"/>
  <polygon points="72,63 73.5,57 71.5,61.5" fill="#BFAE8C"/>
  <polygon points="62,68 66,62 63,66.5" fill="#F3EAD6"/>
  <polygon points="62,68 60.5,62 62.5,66.5" fill="#BFAE8C"/>
  <!-- longhouse A (main, front left): log walls -->
  <polygon points="10,78 58,88 58,95 44,102 10,85" fill="#7A4E2D"/>
  <polygon points="10,85 44,102 44,95 10,78" fill="#7A4E2D"/>
  <polygon points="44,102 58,95 58,88 44,95" fill="#5A3820"/>
  <polygon points="10,82.5 44,99.5 44,99 10,82" fill="#5A3820"/>
  <polygon points="10,80 44,97 44,96.5 10,79.5" fill="#5A3820"/>
  <polygon points="23,91.5 28,94 28,88 23,85.5" fill="#34323C"/>
  <!-- longhouse A (main, front left): steep fur roof, ridge along u -->
  <polygon points="6,78 21,59.5 47,72.5 62,88 44,97" fill="#4F4C58"/>
  <polygon points="6,78 44,97 47,72.5 21,59.5" fill="#6E6B78"/>
  <polygon points="44,97 62,88 47,72.5" fill="#34323C"/>
  <polygon points="10.5,72.5 45,89.5 45,88 11.5,71" fill="#4F4C58"/>
  <polygon points="15.5,66.5 46,82 46,80 16.5,65" fill="#4F4C58"/>
  <polygon points="21,60.5 17,54.5 20,59" fill="#F3EAD6"/>
  <polygon points="21,60.5 22.5,54.5 20.5,59" fill="#BFAE8C"/>
  <polygon points="47,73.5 51,67.5 48,72" fill="#F3EAD6"/>
  <polygon points="47,73.5 45.5,67.5 47.5,72" fill="#BFAE8C"/>
  <!-- totem, front right, horned skull top -->
  <polygon points="66,98.5 69,100 69,87 66,85.5" fill="#7A4E2D"/>
  <polygon points="69,100 72,98.5 72,85.5 69,87" fill="#5A3820"/>
  <polygon points="66,92.5 69,94 69,92 66,90.5" fill="#C8642E"/>
  <polygon points="69,94 72,92.5 72,90.5 69,92" fill="#9A4720"/>
  <polygon points="66.5,86.5 67,83.5 71,83.5 71.5,86.5 70,88.5 68,88.5" fill="#E2D3B4"/>
  <polygon points="67,83.5 71,83.5 70,85 68,85" fill="#F3EAD6"/>
  <polygon points="67.5,85.5 68.5,85.5 68.5,86.5 67.5,86.5" fill="#34323C"/>
  <polygon points="69.5,85.5 70.5,85.5 70.5,86.5 69.5,86.5" fill="#34323C"/>
  <polygon points="66.5,84 64.5,80 66,80 67,83.5" fill="#F3EAD6"/>
  <polygon points="71,83.5 72,80 73.5,80 71.5,84" fill="#BFAE8C"/>
  <!-- hide drying rack -->
  <polygon points="47,102.5 49,103.5 49,91.5 47,90.5" fill="#7A4E2D"/>
  <polygon points="49,103.5 51,102.5 51,90.5 49,91.5" fill="#5A3820"/>
  <polygon points="54,106 56,107 56,95 54,94" fill="#7A4E2D"/>
  <polygon points="56,107 58,106 58,94 56,95" fill="#5A3820"/>
  <polygon points="46,91 57,96.5 57,95 46,89.5" fill="#9A6A42"/>
  <polygon points="49,93.5 53.5,95.5 54,100 52.5,103 50,102 48.5,97.5" fill="#E8884A"/>
  <polygon points="50,102 52.5,103 54,100 51.5,100.5 48.5,97.5" fill="#C8642E"/>
  <!-- woodpile, front corner -->
  <polygon points="40,103 43,101.5 51,105.5 51,108.5 48,110 40,106" fill="#7A4E2D"/>
  <polygon points="40,106 48,110 48,107 40,103" fill="#7A4E2D"/>
  <polygon points="48,110 51,108.5 51,105.5 48,107" fill="#5A3820"/>
  <polygon points="43,101.5 51,105.5 48,107 40,103" fill="#9A6A42"/>
  <polygon points="40,104 41,103.5 42,104 42,105.5 41,106 40,105.5" fill="#BFAE8C"/>
  <polygon points="43,105.5 44,105 45,105.5 45,107 44,107.5 43,107" fill="#BFAE8C"/>
  <polygon points="46,107 47,106.5 48,107 48,108.5 47,109 46,108.5" fill="#BFAE8C"/>
</svg>
